<svg class="rich-terminal" viewBox="0 0 1482 684.4" xmlns="http://www.w3.org/2000/svg">
    <!-- Generated with Rich https://www.textualize.io -->
    <style>

    @font-face {
        font-family: "Fira Code";
        src: local("FiraCode-Regular"),
                url("https://cdnjs.cloudflare.com/ajax/libs/firacode/6.2.0/woff2/FiraCode-Regular.woff2") format("woff2"),
                url("https://cdnjs.cloudflare.com/ajax/libs/firacode/6.2.0/woff/FiraCode-Regular.woff") format("woff");
        font-style: normal;
        font-weight: 400;
    }
    @font-face {
        font-family: "Fira Code";
        src: local("FiraCode-Bold"),
                url("https://cdnjs.cloudflare.com/ajax/libs/firacode/6.2.0/woff2/FiraCode-Bold.woff2") format("woff2"),
                url("https://cdnjs.cloudflare.com/ajax/libs/firacode/6.2.0/woff/FiraCode-Bold.woff") format("woff");
        font-style: bold;
        font-weight: 700;
    }

    .terminal-3276277455-matrix {
        font-family: Fira Code, monospace;
        font-size: 20px;
        line-height: 24.4px;
        font-variant-east-asian: full-width;
    }

    .terminal-3276277455-title {
        font-size: 18px;
        font-weight: bold;
        font-family: arial;
    }

    .terminal-3276277455-r1 { fill: #c5c8c6 }
.terminal-3276277455-r2 { fill: #d8cdbb }
.terminal-3276277455-r3 { fill: #f2e9dd }
.terminal-3276277455-r4 { fill: #121212 }
.terminal-3276277455-r5 { fill: #d97757;font-weight: bold }
.terminal-3276277455-r6 { fill: #3a3429 }
.terminal-3276277455-r7 { fill: #d97757 }
.terminal-3276277455-r8 { fill: #757471 }
    </style>

    <defs>
    <clipPath id="terminal-3276277455-clip-terminal">
      <rect x="0" y="0" width="1463.0" height="633.4" />
    </clipPath>
    <clipPath id="terminal-3276277455-line-0">
    <rect x="0" y="1.5" width="1464" height="24.65"/>
            </clipPath>
<clipPath id="terminal-3276277455-line-1">
    <rect x="0" y="25.9" width="1464" height="24.65"/>
            </clipPath>
<clipPath id="terminal-3276277455-line-2">
    <rect x="0" y="50.3" width="1464" height="24.65"/>
            </clipPath>
<clipPath id="terminal-3276277455-line-3">
    <rect x="0" y="74.7" width="1464" height="24.65"/>
            </clipPath>
<clipPath id="terminal-3276277455-line-4">
    <rect x="0" y="99.1" width="1464" height="24.65"/>
            </clipPath>
<clipPath id="terminal-3276277455-line-5">
    <rect x="0" y="123.5" width="1464" height="24.65"/>
            </clipPath>
<clipPath id="terminal-3276277455-line-6">
    <rect x="0" y="147.9" width="1464" height="24.65"/>
            </clipPath>
<clipPath id="terminal-3276277455-line-7">
    <rect x="0" y="172.3" width="1464" height="24.65"/>
            </clipPath>
<clipPath id="terminal-3276277455-line-8">
    <rect x="0" y="196.7" width="1464" height="24.65"/>
            </clipPath>
<clipPath id="terminal-3276277455-line-9">
    <rect x="0" y="221.1" width="1464" height="24.65"/>
            </clipPath>
<clipPath id="terminal-3276277455-line-10">
    <rect x="0" y="245.5" width="1464" height="24.65"/>
            </clipPath>
<clipPath id="terminal-3276277455-line-11">
    <rect x="0" y="269.9" width="1464" height="24.65"/>
            </clipPath>
<clipPath id="terminal-3276277455-line-12">
    <rect x="0" y="294.3" width="1464" height="24.65"/>
            </clipPath>
<clipPath id="terminal-3276277455-line-13">
    <rect x="0" y="318.7" width="1464" height="24.65"/>
            </clipPath>
<clipPath id="terminal-3276277455-line-14">
    <rect x="0" y="343.1" width="1464" height="24.65"/>
            </clipPath>
<clipPath id="terminal-3276277455-line-15">
    <rect x="0" y="367.5" width="1464" height="24.65"/>
            </clipPath>
<clipPath id="terminal-3276277455-line-16">
    <rect x="0" y="391.9" width="1464" height="24.65"/>
            </clipPath>
<clipPath id="terminal-3276277455-line-17">
    <rect x="0" y="416.3" width="1464" height="24.65"/>
            </clipPath>
<clipPath id="terminal-3276277455-line-18">
    <rect x="0" y="440.7" width="1464" height="24.65"/>
            </clipPath>
<clipPath id="terminal-3276277455-line-19">
    <rect x="0" y="465.1" width="1464" height="24.65"/>
            </clipPath>
<clipPath id="terminal-3276277455-line-20">
    <rect x="0" y="489.5" width="1464" height="24.65"/>
            </clipPath>
<clipPath id="terminal-3276277455-line-21">
    <rect x="0" y="513.9" width="1464" height="24.65"/>
            </clipPath>
<clipPath id="terminal-3276277455-line-22">
    <rect x="0" y="538.3" width="1464" height="24.65"/>
            </clipPath>
<clipPath id="terminal-3276277455-line-23">
    <rect x="0" y="562.7" width="1464" height="24.65"/>
            </clipPath>
<clipPath id="terminal-3276277455-line-24">
    <rect x="0" y="587.1" width="1464" height="24.65"/>
            </clipPath>
    </defs>

    <rect fill="#292929" stroke="rgba(255,255,255,0.35)" stroke-width="1" x="1" y="1" width="1480" height="682.4" rx="8"/><text class="terminal-3276277455-title" fill="#c5c8c6" text-anchor="middle" x="740" y="27">DOXA</text>
            <g transform="translate(26,22)">
            <circle cx="0" cy="0" r="7" fill="#ff5f57"/>
            <circle cx="22" cy="0" r="7" fill="#febc2e"/>
            <circle cx="44" cy="0" r="7" fill="#28c840"/>
            </g>
        
    <g transform="translate(9, 41)" clip-path="url(#terminal-3276277455-clip-terminal)">
    <rect fill="#171512" x="0" y="1.5" width="12.2" height="24.65" shape-rendering="crispEdges"/><rect fill="#171512" x="12.2" y="1.5" width="170.8" height="24.65" shape-rendering="crispEdges"/><rect fill="#171512" x="183" y="1.5" width="12.2" height="24.65" shape-rendering="crispEdges"/><rect fill="#332e27" x="195.2" y="1.5" width="12.2" height="24.65" shape-rendering="crispEdges"/><rect fill="#345274" x="207.4" y="1.5" width="158.6" height="24.65" shape-rendering="crispEdges"/><rect fill="#e0e0e0" x="366" y="1.5" width="12.2" height="24.65" shape-rendering="crispEdges"/><rect fill="#332e27" x="378.2" y="1.5" width="48.8" height="24.65" shape-rendering="crispEdges"/><rect fill="#332e27" x="427" y="1.5" width="12.2" height="24.65" shape-rendering="crispEdges"/><rect fill="#171512" x="439.2" y="1.5" width="12.2" height="24.65" shape-rendering="crispEdges"/><rect fill="#171512" x="451.4" y="1.5" width="183" height="24.65" shape-rendering="crispEdges"/><rect fill="#171512" x="634.4" y="1.5" width="12.2" height="24.65" shape-rendering="crispEdges"/><rect fill="#171512" x="646.6" y="1.5" width="817.4" height="24.65" shape-rendering="crispEdges"/><rect fill="#171512" x="0" y="25.9" width="414.8" height="24.65" shape-rendering="crispEdges"/><rect fill="#171512" x="414.8" y="25.9" width="12.2" height="24.65" shape-rendering="crispEdges"/><rect fill="#171512" x="427" y="25.9" width="183" height="24.65" shape-rendering="crispEdges"/><rect fill="#171512" x="610" y="25.9" width="12.2" height="24.65" shape-rendering="crispEdges"/><rect fill="#171512" x="622.2" y="25.9" width="841.8" height="24.65" shape-rendering="crispEdges"/><rect fill="#171512" x="0" y="50.3" width="1439.6" height="24.65" shape-rendering="crispEdges"/><rect fill="#171512" x="1439.6" y="50.3" width="24.4" height="24.65" shape-rendering="crispEdges"/><rect fill="#171512" x="0" y="74.7" width="24.4" height="24.65" shape-rendering="crispEdges"/><rect fill="#221f1a" x="24.4" y="74.7" width="12.2" height="24.65" shape-rendering="crispEdges"/><rect fill="#221f1a" x="36.6" y="74.7" width="1366.4" height="24.65" shape-rendering="crispEdges"/><rect fill="#221f1a" x="1403" y="74.7" width="12.2" height="24.65" shape-rendering="crispEdges"/><rect fill="#171512" x="1415.2" y="74.7" width="24.4" height="24.65" shape-rendering="crispEdges"/><rect fill="#171512" x="1439.6" y="74.7" width="24.4" height="24.65" shape-rendering="crispEdges"/><rect fill="#171512" x="0" y="99.1" width="24.4" height="24.65" shape-rendering="crispEdges"/><rect fill="#221f1a" x="24.4" y="99.1" width="12.2" height="24.65" shape-rendering="crispEdges"/><rect fill="#221f1a" x="36.6" y="99.1" width="24.4" height="24.65" shape-rendering="crispEdges"/><rect fill="#221f1a" x="61" y="99.1" width="73.2" height="24.65" shape-rendering="crispEdges"/><rect fill="#221f1a" x="134.2" y="99.1" width="1244.4" height="24.65" shape-rendering="crispEdges"/><rect fill="#221f1a" x="1378.6" y="99.1" width="24.4" height="24.65" shape-rendering="crispEdges"/><rect fill="#221f1a" x="1403" y="99.1" width="12.2" height="24.65" shape-rendering="crispEdges"/><rect fill="#171512" x="1415.2" y="99.1" width="24.4" height="24.65" shape-rendering="crispEdges"/><rect fill="#171512" x="1439.6" y="99.1" width="24.4" height="24.65" shape-rendering="crispEdges"/><rect fill="#171512" x="0" y="123.5" width="24.4" height="24.65" shape-rendering="crispEdges"/><rect fill="#221f1a" x="24.4" y="123.5" width="12.2" height="24.65" shape-rendering="crispEdges"/><rect fill="#221f1a" x="36.6" y="123.5" width="24.4" height="24.65" shape-rendering="crispEdges"/><rect fill="#221f1a" x="61" y="123.5" width="256.2" height="24.65" shape-rendering="crispEdges"/><rect fill="#221f1a" x="317.2" y="123.5" width="1061.4" height="24.65" shape-rendering="crispEdges"/><rect fill="#221f1a" x="1378.6" y="123.5" width="24.4" height="24.65" shape-rendering="crispEdges"/><rect fill="#221f1a" x="1403" y="123.5" width="12.2" height="24.65" shape-rendering="crispEdges"/><rect fill="#171512" x="1415.2" y="123.5" width="24.4" height="24.65" shape-rendering="crispEdges"/><rect fill="#171512" x="1439.6" y="123.5" width="24.4" height="24.65" shape-rendering="crispEdges"/><rect fill="#171512" x="0" y="147.9" width="24.4" height="24.65" shape-rendering="crispEdges"/><rect fill="#221f1a" x="24.4" y="147.9" width="12.2" height="24.65" shape-rendering="crispEdges"/><rect fill="#221f1a" x="36.6" y="147.9" width="24.4" height="24.65" shape-rendering="crispEdges"/><rect fill="#221f1a" x="61" y="147.9" width="195.2" height="24.65" shape-rendering="crispEdges"/><rect fill="#221f1a" x="256.2" y="147.9" width="1122.4" height="24.65" shape-rendering="crispEdges"/><rect fill="#221f1a" x="1378.6" y="147.9" width="24.4" height="24.65" shape-rendering="crispEdges"/><rect fill="#221f1a" x="1403" y="147.9" width="12.2" height="24.65" shape-rendering="crispEdges"/><rect fill="#171512" x="1415.2" y="147.9" width="24.4" height="24.65" shape-rendering="crispEdges"/><rect fill="#171512" x="1439.6" y="147.9" width="24.4" height="24.65" shape-rendering="crispEdges"/><rect fill="#171512" x="0" y="172.3" width="24.4" height="24.65" shape-rendering="crispEdges"/><rect fill="#221f1a" x="24.4" y="172.3" width="12.2" height="24.65" shape-rendering="crispEdges"/><rect fill="#221f1a" x="36.6" y="172.3" width="24.4" height="24.65" shape-rendering="crispEdges"/><rect fill="#221f1a" x="61" y="172.3" width="305" height="24.65" shape-rendering="crispEdges"/><rect fill="#221f1a" x="366" y="172.3" width="1012.6" height="24.65" shape-rendering="crispEdges"/><rect fill="#221f1a" x="1378.6" y="172.3" width="24.4" height="24.65" shape-rendering="crispEdges"/><rect fill="#221f1a" x="1403" y="172.3" width="12.2" height="24.65" shape-rendering="crispEdges"/><rect fill="#171512" x="1415.2" y="172.3" width="24.4" height="24.65" shape-rendering="crispEdges"/><rect fill="#171512" x="1439.6" y="172.3" width="24.4" height="24.65" shape-rendering="crispEdges"/><rect fill="#171512" x="0" y="196.7" width="24.4" height="24.65" shape-rendering="crispEdges"/><rect fill="#221f1a" x="24.4" y="196.7" width="12.2" height="24.65" shape-rendering="crispEdges"/><rect fill="#221f1a" x="36.6" y="196.7" width="24.4" height="24.65" shape-rendering="crispEdges"/><rect fill="#221f1a" x="61" y="196.7" width="500.2" height="24.65" shape-rendering="crispEdges"/><rect fill="#221f1a" x="561.2" y="196.7" width="817.4" height="24.65" shape-rendering="crispEdges"/><rect fill="#221f1a" x="1378.6" y="196.7" width="24.4" height="24.65" shape-rendering="crispEdges"/><rect fill="#221f1a" x="1403" y="196.7" width="12.2" height="24.65" shape-rendering="crispEdges"/><rect fill="#171512" x="1415.2" y="196.7" width="24.4" height="24.65" shape-rendering="crispEdges"/><rect fill="#171512" x="1439.6" y="196.7" width="24.4" height="24.65" shape-rendering="crispEdges"/><rect fill="#171512" x="0" y="221.1" width="24.4" height="24.65" shape-rendering="crispEdges"/><rect fill="#221f1a" x="24.4" y="221.1" width="12.2" height="24.65" shape-rendering="crispEdges"/><rect fill="#221f1a" x="36.6" y="221.1" width="24.4" height="24.65" shape-rendering="crispEdges"/><rect fill="#221f1a" x="61" y="221.1" width="353.8" height="24.65" shape-rendering="crispEdges"/><rect fill="#221f1a" x="414.8" y="221.1" width="963.8" height="24.65" shape-rendering="crispEdges"/><rect fill="#221f1a" x="1378.6" y="221.1" width="24.4" height="24.65" shape-rendering="crispEdges"/><rect fill="#221f1a" x="1403" y="221.1" width="12.2" height="24.65" shape-rendering="crispEdges"/><rect fill="#171512" x="1415.2" y="221.1" width="24.4" height="24.65" shape-rendering="crispEdges"/><rect fill="#171512" x="1439.6" y="221.1" width="24.4" height="24.65" shape-rendering="crispEdges"/><rect fill="#171512" x="0" y="245.5" width="24.4" height="24.65" shape-rendering="crispEdges"/><rect fill="#221f1a" x="24.4" y="245.5" width="12.2" height="24.65" shape-rendering="crispEdges"/><rect fill="#221f1a" x="36.6" y="245.5" width="24.4" height="24.65" shape-rendering="crispEdges"/><rect fill="#221f1a" x="61" y="245.5" width="219.6" height="24.65" shape-rendering="crispEdges"/><rect fill="#221f1a" x="280.6" y="245.5" width="1098" height="24.65" shape-rendering="crispEdges"/><rect fill="#221f1a" x="1378.6" y="245.5" width="24.4" height="24.65" shape-rendering="crispEdges"/><rect fill="#221f1a" x="1403" y="245.5" width="12.2" height="24.65" shape-rendering="crispEdges"/><rect fill="#171512" x="1415.2" y="245.5" width="24.4" height="24.65" shape-rendering="crispEdges"/><rect fill="#171512" x="1439.6" y="245.5" width="24.4" height="24.65" shape-rendering="crispEdges"/><rect fill="#171512" x="0" y="269.9" width="24.4" height="24.65" shape-rendering="crispEdges"/><rect fill="#221f1a" x="24.4" y="269.9" width="12.2" height="24.65" shape-rendering="crispEdges"/><rect fill="#221f1a" x="36.6" y="269.9" width="1366.4" height="24.65" shape-rendering="crispEdges"/><rect fill="#221f1a" x="1403" y="269.9" width="12.2" height="24.65" shape-rendering="crispEdges"/><rect fill="#171512" x="1415.2" y="269.9" width="24.4" height="24.65" shape-rendering="crispEdges"/><rect fill="#171512" x="1439.6" y="269.9" width="24.4" height="24.65" shape-rendering="crispEdges"/><rect fill="#171512" x="0" y="294.3" width="24.4" height="24.65" shape-rendering="crispEdges"/><rect fill="#171512" x="24.4" y="294.3" width="1390.8" height="24.65" shape-rendering="crispEdges"/><rect fill="#171512" x="1415.2" y="294.3" width="24.4" height="24.65" shape-rendering="crispEdges"/><rect fill="#171512" x="1439.6" y="294.3" width="24.4" height="24.65" shape-rendering="crispEdges"/><rect fill="#171512" x="0" y="318.7" width="24.4" height="24.65" shape-rendering="crispEdges"/><rect fill="#171512" x="24.4" y="318.7" width="1390.8" height="24.65" shape-rendering="crispEdges"/><rect fill="#171512" x="1415.2" y="318.7" width="24.4" height="24.65" shape-rendering="crispEdges"/><rect fill="#171512" x="1439.6" y="318.7" width="24.4" height="24.65" shape-rendering="crispEdges"/><rect fill="#171512" x="0" y="343.1" width="24.4" height="24.65" shape-rendering="crispEdges"/><rect fill="#171512" x="24.4" y="343.1" width="1390.8" height="24.65" shape-rendering="crispEdges"/><rect fill="#171512" x="1415.2" y="343.1" width="24.4" height="24.65" shape-rendering="crispEdges"/><rect fill="#171512" x="1439.6" y="343.1" width="24.4" height="24.65" shape-rendering="crispEdges"/><rect fill="#171512" x="0" y="367.5" width="24.4" height="24.65" shape-rendering="crispEdges"/><rect fill="#171512" x="24.4" y="367.5" width="1390.8" height="24.65" shape-rendering="crispEdges"/><rect fill="#171512" x="1415.2" y="367.5" width="24.4" height="24.65" shape-rendering="crispEdges"/><rect fill="#171512" x="1439.6" y="367.5" width="24.4" height="24.65" shape-rendering="crispEdges"/><rect fill="#171512" x="0" y="391.9" width="24.4" height="24.65" shape-rendering="crispEdges"/><rect fill="#171512" x="24.4" y="391.9" width="1390.8" height="24.65" shape-rendering="crispEdges"/><rect fill="#171512" x="1415.2" y="391.9" width="24.4" height="24.65" shape-rendering="crispEdges"/><rect fill="#171512" x="1439.6" y="391.9" width="24.4" height="24.65" shape-rendering="crispEdges"/><rect fill="#171512" x="0" y="416.3" width="24.4" height="24.65" shape-rendering="crispEdges"/><rect fill="#171512" x="24.4" y="416.3" width="1390.8" height="24.65" shape-rendering="crispEdges"/><rect fill="#171512" x="1415.2" y="416.3" width="24.4" height="24.65" shape-rendering="crispEdges"/><rect fill="#171512" x="1439.6" y="416.3" width="24.4" height="24.65" shape-rendering="crispEdges"/><rect fill="#171512" x="0" y="440.7" width="24.4" height="24.65" shape-rendering="crispEdges"/><rect fill="#171512" x="24.4" y="440.7" width="1390.8" height="24.65" shape-rendering="crispEdges"/><rect fill="#171512" x="1415.2" y="440.7" width="24.4" height="24.65" shape-rendering="crispEdges"/><rect fill="#171512" x="1439.6" y="440.7" width="24.4" height="24.65" shape-rendering="crispEdges"/><rect fill="#171512" x="0" y="465.1" width="24.4" height="24.65" shape-rendering="crispEdges"/><rect fill="#171512" x="24.4" y="465.1" width="1390.8" height="24.65" shape-rendering="crispEdges"/><rect fill="#171512" x="1415.2" y="465.1" width="24.4" height="24.65" shape-rendering="crispEdges"/><rect fill="#171512" x="1439.6" y="465.1" width="24.4" height="24.65" shape-rendering="crispEdges"/><rect fill="#171512" x="0" y="489.5" width="1439.6" height="24.65" shape-rendering="crispEdges"/><rect fill="#171512" x="1439.6" y="489.5" width="24.4" height="24.65" shape-rendering="crispEdges"/><rect fill="#221f1a" x="0" y="513.9" width="24.4" height="24.65" shape-rendering="crispEdges"/><rect fill="#221f1a" x="24.4" y="513.9" width="1403" height="24.65" shape-rendering="crispEdges"/><rect fill="#221f1a" x="1427.4" y="513.9" width="12.2" height="24.65" shape-rendering="crispEdges"/><rect fill="#221f1a" x="1439.6" y="513.9" width="24.4" height="24.65" shape-rendering="crispEdges"/><rect fill="#171512" x="0" y="538.3" width="12.2" height="24.65" shape-rendering="crispEdges"/><rect fill="#221f1a" x="12.2" y="538.3" width="12.2" height="24.65" shape-rendering="crispEdges"/><rect fill="#221f1a" x="24.4" y="538.3" width="1415.2" height="24.65" shape-rendering="crispEdges"/><rect fill="#221f1a" x="1439.6" y="538.3" width="12.2" height="24.65" shape-rendering="crispEdges"/><rect fill="#171512" x="1451.8" y="538.3" width="12.2" height="24.65" shape-rendering="crispEdges"/><rect fill="#171512" x="0" y="562.7" width="12.2" height="24.65" shape-rendering="crispEdges"/><rect fill="#221f1a" x="12.2" y="562.7" width="12.2" height="24.65" shape-rendering="crispEdges"/><rect fill="#221f1a" x="24.4" y="562.7" width="24.4" height="24.65" shape-rendering="crispEdges"/><rect fill="#221f1a" x="48.8" y="562.7" width="109.8" height="24.65" shape-rendering="crispEdges"/><rect fill="#221f1a" x="158.6" y="562.7" width="1256.6" height="24.65" shape-rendering="crispEdges"/><rect fill="#221f1a" x="1415.2" y="562.7" width="24.4" height="24.65" shape-rendering="crispEdges"/><rect fill="#221f1a" x="1439.6" y="562.7" width="12.2" height="24.65" shape-rendering="crispEdges"/><rect fill="#171512" x="1451.8" y="562.7" width="12.2" height="24.65" shape-rendering="crispEdges"/><rect fill="#171512" x="0" y="587.1" width="12.2" height="24.65" shape-rendering="crispEdges"/><rect fill="#221f1a" x="12.2" y="587.1" width="12.2" height="24.65" shape-rendering="crispEdges"/><rect fill="#221f1a" x="24.4" y="587.1" width="1415.2" height="24.65" shape-rendering="crispEdges"/><rect fill="#221f1a" x="1439.6" y="587.1" width="12.2" height="24.65" shape-rendering="crispEdges"/><rect fill="#171512" x="1451.8" y="587.1" width="12.2" height="24.65" shape-rendering="crispEdges"/><rect fill="#171512" x="0" y="611.5" width="1464" height="24.65" shape-rendering="crispEdges"/>
    <g class="terminal-3276277455-matrix">
    <text class="terminal-3276277455-r2" x="12.2" y="20" textLength="170.8" clip-path="url(#terminal-3276277455-line-0)">Opus@doxa:main</text><text class="terminal-3276277455-r3" x="207.4" y="20" textLength="158.6" clip-path="url(#terminal-3276277455-line-0)">kg-stats&#160;refi</text><text class="terminal-3276277455-r5" x="451.4" y="20" textLength="183" clip-path="url(#terminal-3276277455-line-0)">Haiku@doxa:main</text><text class="terminal-3276277455-r1" x="1464" y="20" textLength="12.2" clip-path="url(#terminal-3276277455-line-0)">
</text><text class="terminal-3276277455-r6" x="0" y="44.4" textLength="414.8" clip-path="url(#terminal-3276277455-line-1)">━━━━━━━━━━━━━━━━━━━━━━━━━━━━━━━━━━</text><text class="terminal-3276277455-r6" x="414.8" y="44.4" textLength="12.2" clip-path="url(#terminal-3276277455-line-1)">╸</text><text class="terminal-3276277455-r7" x="427" y="44.4" textLength="183" clip-path="url(#terminal-3276277455-line-1)">━━━━━━━━━━━━━━━</text><text class="terminal-3276277455-r6" x="610" y="44.4" textLength="12.2" clip-path="url(#terminal-3276277455-line-1)">╺</text><text class="terminal-3276277455-r6" x="622.2" y="44.4" textLength="841.8" clip-path="url(#terminal-3276277455-line-1)">━━━━━━━━━━━━━━━━━━━━━━━━━━━━━━━━━━━━━━━━━━━━━━━━━━━━━━━━━━━━━━━━━━━━━</text><text class="terminal-3276277455-r1" x="1464" y="44.4" textLength="12.2" clip-path="url(#terminal-3276277455-line-1)">
</text><text class="terminal-3276277455-r1" x="1464" y="68.8" textLength="12.2" clip-path="url(#terminal-3276277455-line-2)">
</text><text class="terminal-3276277455-r6" x="24.4" y="93.2" textLength="12.2" clip-path="url(#terminal-3276277455-line-3)">╭</text><text class="terminal-3276277455-r6" x="36.6" y="93.2" textLength="1366.4" clip-path="url(#terminal-3276277455-line-3)">────────────────────────────────────────────────────────────────────────────────────────────────────────────────</text><text class="terminal-3276277455-r6" x="1403" y="93.2" textLength="12.2" clip-path="url(#terminal-3276277455-line-3)">╮</text><text class="terminal-3276277455-r1" x="1464" y="93.2" textLength="12.2" clip-path="url(#terminal-3276277455-line-3)">
</text><text class="terminal-3276277455-r6" x="24.4" y="117.6" textLength="12.2" clip-path="url(#terminal-3276277455-line-4)">│</text><text class="terminal-3276277455-r2" x="61" y="117.6" textLength="73.2" clip-path="url(#terminal-3276277455-line-4)">▎&#160;doxa</text><text class="terminal-3276277455-r6" x="1403" y="117.6" textLength="12.2" clip-path="url(#terminal-3276277455-line-4)">│</text><text class="terminal-3276277455-r1" x="1464" y="117.6" textLength="12.2" clip-path="url(#terminal-3276277455-line-4)">
</text><text class="terminal-3276277455-r6" x="24.4" y="142" textLength="12.2" clip-path="url(#terminal-3276277455-line-5)">│</text><text class="terminal-3276277455-r2" x="61" y="142" textLength="256.2" clip-path="url(#terminal-3276277455-line-5)">DOXA&#160;0.4.0&#160;(2815a52+)</text><text class="terminal-3276277455-r6" x="1403" y="142" textLength="12.2" clip-path="url(#terminal-3276277455-line-5)">│</text><text class="terminal-3276277455-r1" x="1464" y="142" textLength="12.2" clip-path="url(#terminal-3276277455-line-5)">
</text><text class="terminal-3276277455-r6" x="24.4" y="166.4" textLength="12.2" clip-path="url(#terminal-3276277455-line-6)">│</text><text class="terminal-3276277455-r2" x="61" y="166.4" textLength="195.2" clip-path="url(#terminal-3276277455-line-6)">plan&#160;&#160;&#160;&#160;&#160;max&#160;20x</text><text class="terminal-3276277455-r6" x="1403" y="166.4" textLength="12.2" clip-path="url(#terminal-3276277455-line-6)">│</text><text class="terminal-3276277455-r1" x="1464" y="166.4" textLength="12.2" clip-path="url(#terminal-3276277455-line-6)">
</text><text class="terminal-3276277455-r6" x="24.4" y="190.8" textLength="12.2" clip-path="url(#terminal-3276277455-line-7)">│</text><text class="terminal-3276277455-r2" x="61" y="190.8" textLength="305" clip-path="url(#terminal-3276277455-line-7)">model&#160;&#160;&#160;&#160;claude-haiku-4-5</text><text class="terminal-3276277455-r6" x="1403" y="190.8" textLength="12.2" clip-path="url(#terminal-3276277455-line-7)">│</text><text class="terminal-3276277455-r1" x="1464" y="190.8" textLength="12.2" clip-path="url(#terminal-3276277455-line-7)">
</text><text class="terminal-3276277455-r6" x="24.4" y="215.2" textLength="12.2" clip-path="url(#terminal-3276277455-line-8)">│</text><text class="terminal-3276277455-r2" x="61" y="215.2" textLength="500.2" clip-path="url(#terminal-3276277455-line-8)">cwd&#160;&#160;&#160;&#160;&#160;&#160;/home/docwilde/Schreibtisch/doxa</text><text class="terminal-3276277455-r6" x="1403" y="215.2" textLength="12.2" clip-path="url(#terminal-3276277455-line-8)">│</text><text class="terminal-3276277455-r1" x="1464" y="215.2" textLength="12.2" clip-path="url(#terminal-3276277455-line-8)">
</text><text class="terminal-3276277455-r6" x="24.4" y="239.6" textLength="12.2" clip-path="url(#terminal-3276277455-line-9)">│</text><text class="terminal-3276277455-r2" x="61" y="239.6" textLength="353.8" clip-path="url(#terminal-3276277455-line-9)">repo&#160;&#160;&#160;&#160;&#160;doxa&#160;⎇&#160;main&#160;@2815a52</text><text class="terminal-3276277455-r6" x="1403" y="239.6" textLength="12.2" clip-path="url(#terminal-3276277455-line-9)">│</text><text class="terminal-3276277455-r1" x="1464" y="239.6" textLength="12.2" clip-path="url(#terminal-3276277455-line-9)">
</text><text class="terminal-3276277455-r6" x="24.4" y="264" textLength="12.2" clip-path="url(#terminal-3276277455-line-10)">│</text><text class="terminal-3276277455-r2" x="61" y="264" textLength="219.6" clip-path="url(#terminal-3276277455-line-10)">lore&#160;&#160;&#160;&#160;&#160;3&#160;beliefs</text><text class="terminal-3276277455-r6" x="1403" y="264" textLength="12.2" clip-path="url(#terminal-3276277455-line-10)">│</text><text class="terminal-3276277455-r1" x="1464" y="264" textLength="12.2" clip-path="url(#terminal-3276277455-line-10)">
</text><text class="terminal-3276277455-r6" x="24.4" y="288.4" textLength="12.2" clip-path="url(#terminal-3276277455-line-11)">╰</text><text class="terminal-3276277455-r6" x="36.6" y="288.4" textLength="1366.4" clip-path="url(#terminal-3276277455-line-11)">────────────────────────────────────────────────────────────────────────────────────────────────────────────────</text><text class="terminal-3276277455-r6" x="1403" y="288.4" textLength="12.2" clip-path="url(#terminal-3276277455-line-11)">╯</text><text class="terminal-3276277455-r1" x="1464" y="288.4" textLength="12.2" clip-path="url(#terminal-3276277455-line-11)">
</text><text class="terminal-3276277455-r1" x="1464" y="312.8" textLength="12.2" clip-path="url(#terminal-3276277455-line-12)">
</text><text class="terminal-3276277455-r1" x="1464" y="337.2" textLength="12.2" clip-path="url(#terminal-3276277455-line-13)">
</text><text class="terminal-3276277455-r1" x="1464" y="361.6" textLength="12.2" clip-path="url(#terminal-3276277455-line-14)">
</text><text class="terminal-3276277455-r1" x="1464" y="386" textLength="12.2" clip-path="url(#terminal-3276277455-line-15)">
</text><text class="terminal-3276277455-r1" x="1464" y="410.4" textLength="12.2" clip-path="url(#terminal-3276277455-line-16)">
</text><text class="terminal-3276277455-r1" x="1464" y="434.8" textLength="12.2" clip-path="url(#terminal-3276277455-line-17)">
</text><text class="terminal-3276277455-r1" x="1464" y="459.2" textLength="12.2" clip-path="url(#terminal-3276277455-line-18)">
</text><text class="terminal-3276277455-r1" x="1464" y="483.6" textLength="12.2" clip-path="url(#terminal-3276277455-line-19)">
</text><text class="terminal-3276277455-r1" x="1464" y="508" textLength="12.2" clip-path="url(#terminal-3276277455-line-20)">
</text><text class="terminal-3276277455-r2" x="24.4" y="532.4" textLength="1403" clip-path="url(#terminal-3276277455-line-21)">claude-haiku-4-5&#160;&#160;·&#160;&#160;doxa&#160;⎇&#160;main&#160;@2815a52&#160;&#160;·&#160;&#160;sub:max&#160;20x&#160;(≈$0.0000&#160;if&#160;API)&#160;&#160;·&#160;&#160;s:40%&#160;w:54%&#160;&#160;·&#160;&#160;ctx&#160;—&#160;&#160;·&#160;&#160;3&#160;beliefs</text><text class="terminal-3276277455-r1" x="1464" y="532.4" textLength="12.2" clip-path="url(#terminal-3276277455-line-21)">
</text><text class="terminal-3276277455-r7" x="12.2" y="556.8" textLength="12.2" clip-path="url(#terminal-3276277455-line-22)">╭</text><text class="terminal-3276277455-r7" x="24.4" y="556.8" textLength="1415.2" clip-path="url(#terminal-3276277455-line-22)">────────────────────────────────────────────────────────────────────────────────────────────────────────────────────</text><text class="terminal-3276277455-r7" x="1439.6" y="556.8" textLength="12.2" clip-path="url(#terminal-3276277455-line-22)">╮</text><text class="terminal-3276277455-r1" x="1464" y="556.8" textLength="12.2" clip-path="url(#terminal-3276277455-line-22)">
</text><text class="terminal-3276277455-r7" x="12.2" y="581.2" textLength="12.2" clip-path="url(#terminal-3276277455-line-23)">│</text><text class="terminal-3276277455-r8" x="48.8" y="581.2" textLength="109.8" clip-path="url(#terminal-3276277455-line-23)">Ask&#160;DOXA…</text><text class="terminal-3276277455-r7" x="1439.6" y="581.2" textLength="12.2" clip-path="url(#terminal-3276277455-line-23)">│</text><text class="terminal-3276277455-r1" x="1464" y="581.2" textLength="12.2" clip-path="url(#terminal-3276277455-line-23)">
</text><text class="terminal-3276277455-r7" x="12.2" y="605.6" textLength="12.2" clip-path="url(#terminal-3276277455-line-24)">╰</text><text class="terminal-3276277455-r7" x="24.4" y="605.6" textLength="1415.2" clip-path="url(#terminal-3276277455-line-24)">────────────────────────────────────────────────────────────────────────────────────────────────────────────────────</text><text class="terminal-3276277455-r7" x="1439.6" y="605.6" textLength="12.2" clip-path="url(#terminal-3276277455-line-24)">╯</text><text class="terminal-3276277455-r1" x="1464" y="605.6" textLength="12.2" clip-path="url(#terminal-3276277455-line-24)">
</text>
    </g>
    </g>
</svg>
